<?xml version="1.0" encoding="iso-8859-1"?>
<!-- Generator: Adobe Illustrator 19.2.1, SVG Export Plug-In . SVG Version: 6.00 Build 0)  -->
<svg version="1.1" baseProfile="basic" id="Layer_1"
	 xmlns="http://www.w3.org/2000/svg" xmlns:xlink="http://www.w3.org/1999/xlink" x="0px" y="0px" viewBox="0 0 100 100"
	 xml:space="preserve">
<style type="text/css">
	.st0{fill:#57A3B1;}
	.st1{fill:none;}
</style>
<path class="st0" d="M76.8,28.9c0-1.3-0.4-1.8-1.8-1.8c-4.1,0.1-8.1,0-12.2,0c-4.1,0-4.1,0-3.8,4.1c0.1,1,0.4,1.4,1.4,1.4
	c1.6,0,3.2,0,4.8,0c0.5,0,1.2-0.2,1.4,0.3c0.3,0.6-0.4,0.8-0.7,1.2c-1.9,1.8-3.8,3.6-5.6,5.4c-0.8,0.8-1.5,0.9-2.5,0.3
	c-6.6-3.5-13.3-3.4-19.4,1c-6.1,4.3-8.7,10.4-7.5,17.9c1,6.6,6.5,14.3,16.9,15.1c7.3,0.5,14.6-3.5,17.7-11
	c2.5-5.9,1.9-11.6-1.4-17.1c-0.3-0.5-1.1-1-0.3-1.8c2.3-2.4,4.7-4.7,7-7.1c0.2,0.1,0.3,0.1,0.5,0.2c0,1.2,0,2.3,0,3.5
	c0.1,3.9-0.7,3.5,3.7,3.6c1.3,0,1.8-0.4,1.8-1.7C76.7,37.9,76.7,33.4,76.8,28.9z M48.7,68.1c-7.3,0.1-12.5-6-12.4-12.8
	c0.1-6.7,5.7-12.1,12.5-12.1c6.7,0,12.6,5.7,12.5,12.2C61.3,62.4,56.4,68,48.7,68.1z"/>
<rect class="st1" width="100" height="100"/>
<g>
</g>
<g>
</g>
<g>
</g>
<g>
</g>
<g>
</g>
<g>
</g>
</svg>

