<?xml version="1.0" encoding="utf-8"?>
<!-- Generator: Adobe Illustrator 19.2.1, SVG Export Plug-In . SVG Version: 6.00 Build 0)  -->
<svg version="1.1" id="Layer_1" xmlns="http://www.w3.org/2000/svg" xmlns:xlink="http://www.w3.org/1999/xlink" x="0px" y="0px"
	 viewBox="0 0 283.5 283.5" style="enable-background:new 0 0 283.5 283.5;" xml:space="preserve">
<style type="text/css">
	.st0{fill:#0097A7;}
</style>
<path class="st0" d="M142.1,220.2c1.5-0.6,3.3-1.3,2.9-3.2c-0.4-1.7-2.3-0.8-3.5-0.9c-2.7,0-4.8-0.6-5-3.8c-0.2-3.2,0.8-5.8,4.4-6.5
	c0.5-0.1,1.1-0.1,1.6-0.1c6.8-0.4,7-0.5,6.5-7.1c-0.6-8.2-4.7-14.8-10-20.7c-2.6-2.8-5.6-5.3-8.4-7.9c-2-1.9-2.6-0.9-2.9,1.2
	c-1.1,7.8-2.4,15.5-3.5,23.2c-1,7.5-2.3,14.9-5.7,21.9c-1.7,3.4-2.6,7.2-3.9,10.8c-4.2,4.1-13.6,4.3-16.7,0.3
	c-1.4-5.4-0.4-7.3,4.5-9c2-0.7,3.3-2.2,4.3-3.9c2.2-3.9,3.4-8,4.2-12.4c2.7-14.9-1.2-29.3-2.9-43.9c-0.7-6.2-2-12.3-3.6-18.4
	c-2.7-10.4-2.2-20.9,0.4-31.2c1-3.9,0.5-7.3-1.1-10.8c-1-2.1-2.3-2.7-4.4-1.8c-5.2,2.1-10.2,3.2-14.5-1.8c-0.9-1-2-0.2-2.9,0.3
	c-1.3,0.7-2.5,1.5-3.8,2.1c-1.7,0.7-2.8-0.3-3.7-1.6c-1-1.4-0.4-2.7,0.9-3.3c6.2-2.6,9-9.5,15.2-12c0.6-0.2,1.3-0.7,1.1-1.5
	c-0.2-1-1.2-0.9-1.9-1c-1.6-0.2-3.2,0-4.7,0.5c-4.3,1.3-7.7,0.1-9.8-3.7c-1.9-3.3-1.4-7-1.5-10.5c0-1.4,1.4-2.2,2.7-2.7
	c2.2-0.9,4.4-1.9,6.8-2.4c2.2-0.5,3-1.6,3.9-3.7c2.6-6,7.8-9.6,13.9-10.8c13.7-2.7,26.4,1,38.4,7.4c4,2.2,5.2,6.4,3.7,11.6
	c-0.8,2.8-0.2,4.7,1.5,6.9c17.2,22.8,34.4,45.6,51.3,68.7c7.7,10.6,12.1,23,16.7,35.2c1,2.6,1.7,5.3,2.7,7.9
	c4.2,11.2,4.4,22.3,0.3,33.5c-0.4,4.4-2.9,6.6-7.2,7.6c-8.1,1.8-16.4,2.7-24.6,3.8c-2.8,0.4-5.3-0.3-6.6-3.2c-1.5-1.4-2.6-2.5-1.7-5
	c0.9-2.7-1.4-4.3-3.9-4.6c-2.3-0.3-4.7,0.1-7.1,0.2c-3.4,0.1-5.5,1.7-5.6,5.3c-2.3,14.8-3.3,12.2-14.7,12.5c-0.8,0-1.6,0-2.4,0
	c-4.3-0.2-6.1-1.8-6.3-5.5c-0.2-3.4,1.8-5.2,6-5.6C141.6,220.5,141.9,220.3,142.1,220.2z"/>
</svg>
