<?xml version="1.0" encoding="utf-8"?>
<!-- Generator: Adobe Illustrator 19.2.1, SVG Export Plug-In . SVG Version: 6.00 Build 0)  -->
<svg version="1.1" id="Layer_1" xmlns="http://www.w3.org/2000/svg" xmlns:xlink="http://www.w3.org/1999/xlink" x="0px" y="0px"
	 viewBox="0 0 283.5 283.5" style="enable-background:new 0 0 283.5 283.5;" xml:space="preserve">
<style type="text/css">
	.st0{fill:#0097A7;}
</style>
<path class="st0" d="M231.4,184.4c-3.2-2-7.1-2.8-10.8-1.8c-3.9,1.1-6.8,4.1-9.6,6.9c-3,3-5.3,5.7-9.9,5.2c-3.2-0.4-6.5-1.8-8.9-4
	c-2.9-2.6-4-6.3-5.6-9.8c-1.7-3.9-3.6-7.7-5.8-11.4c-4.5-7.7-10.7-14.1-16.8-20.5c-6.4-6.8-12.9-13.5-19.1-20.5
	c-6.1-6.8-12.8-13.9-17.7-21.6c-1.1-1.8-2.1-3.7-3-5.7c-1.1-2.5-1.3-3,0-5.2c2-3.3-2.6-7.4-4.6-9.7c-2.9-3.3-5.3-6.9-9.7-8.3
	c-3.9-1.3-8.7-1.2-12.4,0.7c-2,1-3,2.8-4.8,4.1c-1.6,1.1-3.4,1.6-5.3,1.9c-4.1,0.7-7.9,0.5-12,0.4c-1.6-0.1-4.2-0.1-5.3,1.4
	c-1.1,1.5-0.3,3.7,0.6,5.1c2.3,3.4,7.7,4,11.1,5.8c-2,1-3.5,0.5-5.7,0.8c-3.1,0.5-4,4-1.2,5.7c4.3,2.6,10.5,1.4,15.3,2.4
	c2.3,0.5,5.7,1.3,7.1,3.3c1.2,1.7,1.5,4.1,1.3,6.1c-0.4,5.3-2.8,10.3-4.4,15.3c-3.5,11,1.8,24.8,10,32.4c3.9,3.6,7.6,6.5,9,11.9
	c0.6,2.3,0.6,4.6,0.4,6.9c-0.2,2.2-0.2,4.7-0.8,6.8c-1.3,4.4-6.1,2.9-8.8,5.7c-1.5,1.5-2,4.5,0.2,5.6c2.6,1.2,5.8-0.5,8.3,1.3
	c-2.7,0.8-7.1,1.3-6.3,5.2c0.8,3.8,3.9,3.2,6.9,3.5c2.9,0.3,8.6,1.6,10.4-1.6c1-1.8,0.9-4.1,1.2-6c0.7-4,3.3-8.2,4.9-11.9
	c0.8-1.9,1.7-3.8,2.5-5.7c0.5-1,1.4-4.5,3-4.4c1.1,0.1,1.4,1.8,1.7,2.6c0.9,1.8,1.8,3.6,3,5.3c0.8,1.2,2.3,2.3,2.8,3.5
	c0.7,1.6-0.6,1.9-1.6,3c-1.2,1.3-1.5,3.3-0.3,4.7c1.1,1.3,2.4,0.7,3.8,1c1.7,0.3,0.6,1,0,2.3c-0.5,1.2-0.8,2.6-0.3,3.9
	c1.4,3.3,6.5,2.5,9.3,2.6c4.6,0.1,9.3,0.1,13.9,0.1c3.5-0.1,9.1,0.9,12-1.6c1.2-1,1.7-2.5,2.8-3.5c1.2-1,2.7-1.1,4.2-1.1
	c4.6,0.2,9.1,0.4,13.6,0.3c7.7-0.2,16.8,0.6,23.7-3.5c2.7-1.6,4.8-3.9,6.4-6.5C232.1,190.9,234.9,186.6,231.4,184.4
	C226.1,181,233,185.4,231.4,184.4z"/>
</svg>
