<?xml version="1.0" encoding="utf-8"?>
<!-- Generator: Adobe Illustrator 19.2.1, SVG Export Plug-In . SVG Version: 6.00 Build 0)  -->
<svg version="1.1" id="Layer_1" xmlns="http://www.w3.org/2000/svg" xmlns:xlink="http://www.w3.org/1999/xlink" x="0px" y="0px"
	 viewBox="0 0 283.5 283.5" style="enable-background:new 0 0 283.5 283.5;" xml:space="preserve">
<style type="text/css">
	.st0{fill:#0097A7;}
</style>
<path class="st0" d="M90.3,68c-0.4-0.3-1.7-1.1-3-1.9c-0.3,0.2-0.5,0.4-0.8,0.6c0.7,2.5,1.4,5,2.1,7.4c-2.2,1.3-5,2.1-6.7,3.9
	c-2.6,2.7-4.6,6.1-6.7,9.3c-0.6,0.9-0.5,2.3-1.2,2.9c-3,2.9-4,6-1.6,9.6c1.9,2.9,3.8,5.8,7.8,6.1c4.6,0.4,5.5,3.7,5.4,7.5
	c0,1.3-0.2,2.8-0.8,3.9c-5.9,12,0.1,21.4,6.5,30.9c4.6,6.9,8.8,14,5.1,22.8c-0.8,1.9-0.5,4.2-1,6.3c-0.6,2.8-0.5,5.9-4.7,6.7
	c-3.1,0.6-3.6,4.1-1.5,6.8c0.7,0.9,1.6,2.2,1.4,3.2c-0.7,3.7,1.1,5.4,4.4,5.7c2.8,0.3,6.1,1,8.4-0.1c2.8-1.4,4.7-4.5,7.8-7.6
	c2.7,0.2,7,0.5,11.6,0.8c-0.5,0.8-1.2,1.4-1.3,2c-0.5,2-1.7,4.8-0.9,5.8c1.5,1.7,4.3,3.1,6.5,3c8.5-0.4,17-1.5,25.6-2.1
	c7.3-0.5,13.4-2.7,18-8.7c0.5-0.7,1.5-1.1,2.3-1.5c17-9,24.4-27.4,18.8-45.9c-2.6-8.3-6.8-15.7-11.6-22.8c-5.5-8.1-9.3-16.9-7.2-27
	c1-4.5,5.1-7.7,9.5-7.9c4.1-0.2,9.5,3.5,10.6,7.4c0.9,3.2,0.2,6.2-3.2,7.8c-1.3,0.7-2.7,1.2-4,1.9c-2.7,1.4-3.2,4.2-2,6.3
	c0.8,1.4,3.7,2.5,5.4,2.2c8.7-1.6,13.8-11.4,11.9-20.8c-1.7-8.4-9.7-15.5-18.5-15.1c-10.3,0.5-18.3,5.7-19.9,15.4
	c-1.5,9.1-0.8,18.3,3.7,26.7c4.6,8.8,9.3,17.5,13.9,26.3c5.6,10.6,1.1,19.4-5.1,27.8c-0.9,1.2-2.1,2.1-3.4,3.4
	c-0.4-5.5-0.7-10.8-1.2-16.1c-1.4-12.9-3.6-25.6-11.7-36.3c-6.4-8.5-15.1-13.2-26-13.5c-9.9-0.3-11.4-1.9-13.9-11
	c-1.6-5.8-3.5-12.2-7.2-16.7c-5.1-6.1-12-10.6-18.2-15.7C93,67.4,91.9,67.9,90.3,68z"/>
</svg>
