<?xml version="1.0" encoding="iso-8859-1"?>
<!-- Generator: Adobe Illustrator 19.2.1, SVG Export Plug-In . SVG Version: 6.00 Build 0)  -->
<svg version="1.1" baseProfile="basic" id="Layer_1"
	 xmlns="http://www.w3.org/2000/svg" xmlns:xlink="http://www.w3.org/1999/xlink" x="0px" y="0px" viewBox="0 0 100 100"
	 xml:space="preserve">
<style type="text/css">
	.st0{fill:#0097A7;}
	.st1{fill:none;}
</style>
<path class="st0" d="M15.8,40.2c0.1-0.8,0.8-1.3,1.4-1.6c1.7-0.8,2.8-1.9,3.7-3.7c1-2.1,3-3.4,5.7-3.7c4.5-0.6,7,2.2,9.9,4.6
	c0.3,0.3,0.7,0.9,0.6,1.1c-1,1.6,0.7,1.7,1.3,1.9c2.3,1,4.2,2.2,6.1,3.9c2.4,2.1,5.4,2.8,8.6,2.7c4.1-0.1,8.1-0.3,12.2,0.3
	c2.8,0.4,5.4,1.3,8,2.6c2.9,1.4,5.9,1.3,9,0.7c2.5-0.5,4.7-1.5,6.7-3.1c1-0.8,2.1-1.2,3.3-1.7c1.2-0.5,2.1-1.3,2.9-2.3
	c0.4-0.6,1-1.2,1.8-0.5c0.7,0.7,0.2,1.5-0.3,2c-0.9,0.9-2,1.7-3,2.4c-2.5,1.8-4.8,4.1-7.8,4.9c-2.6,0.7-4.9,1.8-7.4,2.7
	c-1.4,0.5-1.9,1.2-1.3,2.8c0.7,1.8,1,3.8,1.6,5.7c0.8,2.5,2.7,3.9,5.1,4.3c1.7,0.3,2.5,1.2,3.1,2.4c1.3,2.5,3.1,4.5,5.4,6.2
	c1.1,0.8,1.8,1.7,1.6,3.2c-0.1,1.3-0.6,1.7-1.9,1.3c-1.7-0.6-3.1-1.7-3.9-3.3c-1.3-2.5-3.4-4.2-6-5.2c-0.4-0.2-0.9-0.3-1.4-0.4
	c-0.4-0.1-0.9-0.2-1.2,0.2c-0.3,0.4-0.3,1.1,0.1,1.4c1.7,1.1,1.5,3.7,3.8,4.2c0.7,0.2,1.1,1,0.8,1.9c-0.4,1-1.9,1.5-2.9,1
	c-2-1-3.4-2.4-4.2-4.5c-0.8-2.4-2.7-4.2-4.5-5.9c-1.2-1.1-2.8-1.1-4.3-1.1c-2.1,0-3.8-0.8-4.9-2.6c-0.6-1-1.5-1.2-2.7-0.7
	c-4.3,1.7-8.7,1.5-13.2,0.3c-4.4-1.2-8.6-2.9-13-4.3c-1.5-0.5-2.8-0.4-3.9,1c-1.4,1.7-3.5,2.9-4.9,4.7c-0.6,0.8-1.7,1.2-2.6,1.1
	c-2-0.1-3.9,0.1-5.8,0.1c-1.2,0-2.4,0-3.5,0.6c-0.4,0.2-0.8,0.3-1.1,0c-0.7-0.9-1.6-0.8-2.5-0.6c-1.9,0.4-3-0.9-4.2-1.9
	c-0.5-0.4-0.7-1.4-0.1-2.1c0.6-0.7,1.2-1,2.1-0.5c1.5,0.8,3.1,0.9,4.7,0.5c2.6-0.6,5.3-1.1,7.8-2.2c1.8-0.8,1.9-1.1,0.4-2.3
	c-2.6-2.1-5.7-3.3-8.7-4.4c-1.9-0.7-2.7-2.2-3.1-3.9c-0.2-0.9,0.7-1.4,1.5-1c2.4,1.2,5,1.6,7.5,2.3c1.6,0.4,2.8,1.7,4.2,2.4
	c2.1,1.1,2.6,0.9,2.8-1.5c0.2-1.8,0.5-3.6-1.1-5.1c-1.3-1.2-2.8-1.3-4.4-1.3C16.6,46,14.7,43.3,15.8,40.2z"/>
<rect class="st1" width="100" height="100"/>
<g>
</g>
<g>
</g>
<g>
</g>
<g>
</g>
<g>
</g>
<g>
</g>
</svg>

