<?xml version="1.0" encoding="iso-8859-1"?><!-- Generator: Adobe Illustrator 19.2.1, SVG Export Plug-In . SVG Version: 6.00 Build 0)  -->
<svg xmlns:xlink="http://www.w3.org/1999/xlink" baseProfile="basic" id="Layer_1"
	 version="1.1" viewBox="0 0 100 100" x="0px" xmlns="http://www.w3.org/2000/svg" y="0px"
	 xml:space="preserve">
<style type="text/css">
	.st0{fill:none;}
	.st1{fill:#EEEEEE;}
</style>
<rect class="st0" height="100" width="100"/>
<path class="st1" d="M48.7,39.6c6.7,0,11.8,1.2,16.5,3.7c3.6,1.9,6.8,4.4,9.6,7.3c2,2.1,3.4,4.5,4,7.3c0.5,2.2,0.6,4.4,0.5,6.7
	c-0.4,4.8-2.2,9-5,12.8c-2.3,3.1-5,6-7.9,8.6c-2.1,1.9-4.3,3.6-6.6,5.1c-1.9,1.2-3.8,2.2-6,2.8c-1.3,0.4-2.7,0.6-4.1,0.5
	c-1.8-0.1-3.4-0.6-5-1.2c-2-0.8-3.9-1.9-5.7-3.2c-4.7-3.4-8.8-7.3-12.5-11.8c-2-2.5-3.6-5.3-4.6-8.3c-0.6-1.8-0.9-3.6-1.1-5.4
	c-0.2-2.2-0.1-4.3,0.5-6.5c0.7-2.9,2.2-5.5,4.3-7.6c1.9-2,4-3.8,6.2-5.4c3.4-2.3,7.1-3.8,11.1-4.7C45.6,39.8,47.4,39.6,48.7,39.6z"
	/>
<path class="st1" d="M53.5,21.1c0.1-2.8,0.5-5.5,1.6-8c0.9-2,2-3.8,3.7-5.2c1.6-1.3,3.5-2.2,5.6-2.4c1.9-0.2,3.6,0.2,5.2,1.3
	c2.8,1.9,4.6,4.4,5.3,7.7c0.4,1.5,0.6,3,0.6,4.6c0.1,4.4-1.1,8.4-4,11.7c-1.4,1.6-3.1,2.8-5.1,3.4c-2.9,0.8-5.4,0.2-7.7-1.6
	c-1.9-1.5-3.2-3.5-4.1-5.7c-0.5-1.4-0.9-2.9-1-4.4C53.6,22,53.5,21.5,53.5,21.1z"/>
<path class="st1" d="M24.4,19.7c0-2.3,0.4-4.6,1.1-6.7c1-2.9,2.8-5,5.4-6.5c2.2-1.3,4.5-1.3,6.9-0.5c2.5,0.8,4.4,2.5,5.8,4.7
	c1.3,2.1,2.2,4.4,2.5,6.8c0.1,1.1,0.3,2.3,0.3,3.4c0,0.9-0.1,1.8-0.2,2.6c-0.4,2.7-1.4,5.1-3.1,7.2c-1.1,1.3-2.3,2.3-3.8,3
	c-2.5,1.1-5,1-7.5-0.3c-2.2-1.2-3.8-2.9-5-5c-1.2-2.1-1.9-4.4-2.2-6.9C24.5,21,24.5,20.3,24.4,19.7z"/>
<path class="st1" d="M87.1,23.6c3.6,0,6.6,2.1,7.8,5.7c0.5,1.5,0.7,3.1,0.5,4.7c-0.3,3.3-1.4,6.3-3.5,9c-1.4,1.8-3,3.4-5,4.6
	c-1.7,1-3.6,1.6-5.5,1.7c-2.5,0.1-4.6-1-6.3-2.9c-1.3-1.5-1.9-3.3-2-5.3c0-1.4,0.1-2.8,0.3-4.2c0.3-1.9,1.1-3.6,2-5.3
	c1.6-2.8,3.8-5,6.7-6.6c1.3-0.7,2.6-1.2,4-1.3C86.5,23.6,86.8,23.6,87.1,23.6z"/>
<path class="st1" d="M26.9,40.7c0.1,1.6-0.5,3.4-1.6,5c-1.3,1.8-3,3-5.2,3.4c-1.2,0.2-2.4,0-3.6-0.2c-2.2-0.5-4.1-1.6-5.8-3.1
	c-2.8-2.5-4.8-5.6-5.7-9.3c-0.4-1.6-0.6-3.1-0.4-4.8C4.9,28.6,6.1,26,9,24.5c2.3-1.2,4.7-1.2,7-0.4c3.2,1.2,5.8,3.2,7.8,6.1
	c1.1,1.7,2,3.4,2.6,5.3C26.7,37.1,26.8,38.7,26.9,40.7z"/>
	<path d="M47.2,64.4c0,1.5-0.2,2.8-0.5,3.9c-0.3,1.1-0.8,2-1.3,2.7c-0.6,0.7-1.2,1.3-2,1.6c-0.8,0.4-1.6,0.5-2.5,0.5
		c-0.9,0-1.7-0.2-2.5-0.5c-0.8-0.4-1.4-0.9-2-1.6s-1-1.6-1.3-2.7c-0.3-1.1-0.5-2.4-0.5-3.9s0.2-2.8,0.5-3.9c0.3-1.1,0.8-2,1.3-2.7
		c0.6-0.7,1.2-1.3,2-1.6c0.8-0.4,1.6-0.5,2.5-0.5c0.9,0,1.7,0.2,2.5,0.5c0.8,0.4,1.4,0.9,2,1.6c0.6,0.7,1,1.6,1.3,2.7
		C47.1,61.6,47.2,62.9,47.2,64.4z M45,64.4c0-1.3-0.1-2.4-0.3-3.3c-0.2-0.9-0.5-1.6-0.9-2.2c-0.4-0.5-0.8-0.9-1.3-1.2
		c-0.5-0.2-1-0.4-1.5-0.4c-0.5,0-1,0.1-1.5,0.4c-0.5,0.2-0.9,0.6-1.3,1.2c-0.4,0.5-0.7,1.3-0.9,2.2c-0.2,0.9-0.3,2-0.3,3.3
		c0,1.3,0.1,2.4,0.3,3.3c0.2,0.9,0.5,1.6,0.9,2.1c0.4,0.5,0.8,0.9,1.3,1.2c0.5,0.2,1,0.4,1.5,0.4c0.5,0,1-0.1,1.5-0.4
		c0.5-0.2,0.9-0.6,1.3-1.2c0.4-0.5,0.7-1.3,0.9-2.1S45,65.7,45,64.4z"/>
	<path d="M56.6,60c0,0.7-0.1,1.3-0.3,1.8c-0.2,0.5-0.5,1-0.8,1.3c-0.3,0.4-0.8,0.6-1.2,0.8c-0.5,0.2-0.9,0.3-1.5,0.3
		c-0.5,0-1-0.1-1.5-0.3c-0.5-0.2-0.9-0.5-1.2-0.8c-0.3-0.4-0.6-0.8-0.8-1.3C49.1,61.2,49,60.6,49,60c0-0.7,0.1-1.3,0.3-1.8
		c0.2-0.5,0.5-1,0.8-1.4c0.3-0.4,0.7-0.6,1.2-0.8c0.5-0.2,1-0.3,1.5-0.3c0.5,0,1,0.1,1.5,0.3c0.5,0.2,0.9,0.5,1.2,0.8
		c0.3,0.4,0.6,0.8,0.8,1.4S56.6,59.3,56.6,60z M62.7,56.2c0.1-0.1,0.2-0.2,0.3-0.3c0.1-0.1,0.3-0.1,0.4-0.1H65L52.4,72.7
		c-0.1,0.1-0.2,0.2-0.3,0.3C52,73,51.9,73,51.7,73h-1.6L62.7,56.2z M55,60c0-0.5-0.1-1-0.2-1.3c-0.1-0.4-0.3-0.7-0.5-0.9
		s-0.4-0.4-0.7-0.5c-0.3-0.1-0.5-0.2-0.8-0.2c-0.3,0-0.6,0.1-0.8,0.2c-0.3,0.1-0.5,0.3-0.7,0.5c-0.2,0.2-0.3,0.5-0.5,0.9
		c-0.1,0.4-0.2,0.8-0.2,1.3c0,0.5,0.1,1,0.2,1.3c0.1,0.4,0.3,0.7,0.5,0.9c0.2,0.2,0.4,0.4,0.7,0.5s0.5,0.2,0.8,0.2
		c0.3,0,0.6-0.1,0.8-0.2c0.3-0.1,0.5-0.3,0.7-0.5s0.4-0.5,0.5-0.9C54.9,60.9,55,60.5,55,60z M66.1,68.9c0,0.7-0.1,1.3-0.3,1.8
		s-0.5,1-0.8,1.3c-0.3,0.4-0.8,0.6-1.2,0.8s-0.9,0.3-1.5,0.3c-0.5,0-1-0.1-1.5-0.3c-0.5-0.2-0.9-0.5-1.2-0.8s-0.6-0.8-0.8-1.3
		c-0.2-0.5-0.3-1.1-0.3-1.8c0-0.7,0.1-1.3,0.3-1.8c0.2-0.5,0.5-1,0.8-1.4s0.7-0.6,1.2-0.8c0.5-0.2,1-0.3,1.5-0.3
		c0.5,0,1,0.1,1.5,0.3c0.5,0.2,0.9,0.5,1.2,0.8s0.6,0.8,0.8,1.4S66.1,68.3,66.1,68.9z M64.5,68.9c0-0.5-0.1-1-0.2-1.4
		c-0.1-0.4-0.3-0.7-0.5-0.9c-0.2-0.2-0.4-0.4-0.7-0.5c-0.3-0.1-0.5-0.2-0.8-0.2s-0.6,0.1-0.8,0.2c-0.3,0.1-0.5,0.3-0.7,0.5
		c-0.2,0.2-0.3,0.5-0.4,0.9c-0.1,0.4-0.2,0.8-0.2,1.4c0,0.5,0.1,1,0.2,1.3c0.1,0.4,0.3,0.7,0.4,0.9c0.2,0.2,0.4,0.4,0.7,0.5
		c0.3,0.1,0.5,0.2,0.8,0.2s0.6,0,0.8-0.2c0.3-0.1,0.5-0.3,0.7-0.5c0.2-0.2,0.4-0.5,0.5-0.9C64.4,69.9,64.5,69.5,64.5,68.9z"/>

</svg>
