<?xml version="1.0" encoding="iso-8859-1"?>
<!-- Generator: Adobe Illustrator 19.2.1, SVG Export Plug-In . SVG Version: 6.00 Build 0)  -->
<svg version="1.1" baseProfile="basic" id="Layer_1"
	 xmlns="http://www.w3.org/2000/svg" xmlns:xlink="http://www.w3.org/1999/xlink" x="0px" y="0px" viewBox="0 0 200 200"
	 xml:space="preserve">
<style type="text/css">
	.st0{fill:none;}
	.st1{fill:#80CAC3;}
	.st2{fill:#0796A6;}
</style>
<rect class="st0" width="200" height="200"/>
<path class="st1" d="M157.9,135.8c-0.6-1.7-1.1-3.5-1.8-5.2c-3-8-5.8-16.1-10.9-23c-11-15.1-22.3-30-33.5-44.9
	c-1.1-1.5-1.5-2.7-1-4.5c1-3.4,0.2-6.2-2.4-7.6c-7.8-4.2-16.1-6.6-25.1-4.8c-4,0.8-7.4,3.1-9.1,7.1c-0.6,1.4-1.1,2.1-2.6,2.4
	c-1.5,0.3-3,1-4.4,1.6c-0.8,0.3-1.8,0.9-1.8,1.8c0.1,2.3-0.3,4.7,1,6.9c1.4,2.5,3.6,3.3,6.4,2.4c1-0.3,2-0.4,3.1-0.3
	c0.5,0,1.1,0,1.3,0.6c0.1,0.5-0.4,0.8-0.7,1c-4,1.7-5.8,6.2-9.9,7.9c-0.9,0.4-1.2,1.2-0.6,2.2c0.6,0.8,1.3,1.5,2.4,1.1
	c0.9-0.4,1.7-0.9,2.5-1.4c0.6-0.3,1.3-0.9,1.9-0.2c2.8,3.3,6.1,2.6,9.5,1.2c1.4-0.6,2.2-0.2,2.9,1.2c1.1,2.3,1.3,4.5,0.7,7
	c-1.5,6.2-1.9,12.5-0.6,18.9c-1.5-1.8-2.9-3.7-4.2-5.7c-0.8-1.2-1.4-2.4-2-3.7c-0.7-1.7-0.9-1.9,0-3.4c1.3-2.2-1.7-4.8-3-6.3
	c-1.9-2.2-3.5-4.5-6.4-5.4c-2.6-0.8-5.7-0.8-8.1,0.5c-1.3,0.7-2,1.8-3.1,2.7c-1,0.7-2.2,1-3.5,1.2c-2.7,0.4-5.2,0.3-7.8,0.3
	c-1.1,0-2.7-0.1-3.5,0.9c-0.7,1-0.2,2.4,0.4,3.3c1.5,2.2,5,2.6,7.3,3.8c-1.3,0.7-2.3,0.3-3.7,0.5c-2,0.3-2.6,2.6-0.8,3.7
	c2.8,1.7,6.8,0.9,10,1.6c1.5,0.3,3.7,0.9,4.6,2.1c0.8,1.1,1,2.7,0.9,4c-0.3,3.5-1.8,6.7-2.9,10c-2.3,7.2,1.2,16.2,6.5,21.2
	c2.5,2.3,5,4.3,5.9,7.8c0.4,1.5,0.4,3,0.3,4.5c-0.1,1.4-0.1,3-0.5,4.4c-0.8,2.9-4,1.9-5.8,3.7c-1,1-1.3,3,0.1,3.6
	c1.7,0.8,3.8-0.3,5.4,0.8c-1.8,0.5-4.6,0.9-4.1,3.4c0.5,2.5,2.5,2.1,4.5,2.3c1.9,0.2,5.6,1.1,6.8-1c0.6-1.2,0.6-2.7,0.8-3.9
	c0.5-2.6,2.1-5.3,3.2-7.8c0.5-1.2,1.1-2.5,1.7-3.7c0.3-0.7,0.9-3,1.9-2.9c0.7,0.1,0.9,1.2,1.1,1.7c0.4,0.8,0.8,1.7,1.3,2.5
	c-0.4,1.2-0.9,2.5-1.6,3.6c-0.7,1.2-1.5,2.1-2.8,2.6c-3.2,1.1-3.8,2.4-2.9,5.9c2,2.5,8,2.5,10.8-0.1c0,0.3,0.1,0.6,0.2,0.9
	c0.9,2.2,4.2,1.7,6.1,1.7c3,0.1,6.1,0.1,9.1,0c0.3,0,0.6,0,0.9,0c0.4,0.1,0.9,0.1,1.4,0.2c0.5,0,1,0,1.6,0c6.2-0.1,7.7,1,8.9-4.2
	c2.9,0.1,5.7,0.3,8.6,0.2c1.6,0,3.3,0,5.1-0.1c0.9,0.8,2.1,1,3.3,0.8c5.4-0.7,10.8-1.3,16.1-2.5c2.8-0.6,4.4-2.1,4.7-4.9
	C160.8,150.4,160.7,143.1,157.9,135.8z M129.3,158.5c-1.6-0.2-3.3-0.8-4.7-1.7c0,0,0,0,0.1,0c1.6-0.1,3.1-0.3,4.7-0.1
	c1.1,0.1,2.2,0.7,2.6,1.6C131.2,158.5,130.4,158.7,129.3,158.5z"/>
<path class="st2" d="M68.1,161.8c1.4-0.7,2.8,0.1,4.2,0c0.7,0,1.5,0.1,1.7-0.7c0.3-0.8-0.4-1.2-1-1.5c-2.2-1.1-4.5-2.1-6.7-3.1
	c-1.3-0.6-2,0-2.1,1.4c-0.1,1.9,0,3.8-0.1,5.7c-0.1,1.9-0.9,3.3-3.1,3.4c-1.3,0-2.4,0.5-3.4,1.3c-1,0.8-2.2,1-3.5,0.9
	c-0.7-0.1-1.4-0.1-1.6-0.9c-0.2-0.7,0.4-1,0.8-1.4c2.1-1.7,2.7-4,2.6-6.6c-0.1-4.6,0.3-9.1-3-13c-1.7-2.1-1.8-5-2-7.7
	c-0.3-4.4-2.4-6.4-6.7-6.5c-1.5,0-3.1,0.1-3.9-1.7c-0.8-1.9,0-3.1,1.5-4.2c0.8-0.6,0.9-1.6,1.2-2.5c0.3-1,0.6-2.2,1.6-2.6
	c2.4-1.1,3.5-2.8,3.4-5.4c0-0.5,0.1-1.2,0.8-1.3c0.6-0.1,0.8,0.5,1,0.9c0.6,1.2,1,2,1.8,0.1c0.4-1,1.1-0.4,1.5,0.2
	c1,1.4,1.7,3,1.9,4.7c0.7,5.9,4.3,9.8,8.7,13.2c4.8,3.7,10,6.7,15.1,9.9c3.2,2,6.4,4.2,8.3,7.7c0.9,1.5,1.6,3.1,1.5,4.9
	c0,1.2,0.3,2.3,1.6,2.7c1,0.3,1.9,0.3,2.7-0.5c1-0.9,0.7-2.1,0.3-3.2c-0.2-0.8-1-1.4-0.5-2.6c2.2,0.3,3.4,1.6,3.7,3.6
	c0.4,2.2-0.3,4.2-2.3,5.5c-2,1.2-4.1,1.5-6.3,0.6c-1.7-1.1-2.5-0.3-2.4,1.5c0.1,1.6-0.6,2.2-1.9,2.2c-2.7,0.1-5.6,0.8-7.4-2.1
	c-0.5-0.8-1.4-0.8-2.3-0.8c-1.6,0-3.2,0-4.9,0C67.8,163.8,67.5,163,68.1,161.8z"/>
</svg>
