<?xml version="1.0" encoding="iso-8859-1"?>
<!-- Generator: Adobe Illustrator 19.2.1, SVG Export Plug-In . SVG Version: 6.00 Build 0)  -->
<svg version="1.1" baseProfile="basic" id="Layer_1"
	 xmlns="http://www.w3.org/2000/svg" xmlns:xlink="http://www.w3.org/1999/xlink" x="0px" y="0px" viewBox="0 0 200 200"
	 xml:space="preserve">
<style type="text/css">
	.st0{fill:none;}
	.st1{fill:#80CAC3;}
	.st2{fill:#0796A6;}
</style>
<rect class="st0" width="200" height="200"/>
<path class="st1" d="M29.3,99.5c0-1.3,1-2.1,2.1-2.7c2.6-1.5,4.3-3.4,5.4-6.4c1.4-3.5,4.4-5.8,8.5-6.7c7-1.6,11.5,2.6,16.4,5.9
	c0.5,0.4,1.2,1.3,1.1,1.7c-1.3,2.8,1.3,2.5,2.4,2.9c3.7,1.2,7,2.9,10.2,5.3c4.1,3,9,3.7,14,3.1c6.4-0.7,12.9-1.7,19.4-1.3
	c4.5,0.3,8.8,1.3,13,2.9c4.8,1.9,9.6,1.2,14.4-0.2c3.9-1.2,7.3-3,10.2-5.9c1.4-1.4,3.2-2.3,5-3.2c1.8-0.9,3.2-2.3,4.3-4
	c0.6-0.9,1.5-2,2.7-1.1c1.3,1,0.6,2.4-0.2,3.2c-1.4,1.6-2.9,3-4.5,4.3c-3.8,3.1-7,7.2-11.7,9c-4,1.5-7.6,3.6-11.4,5.4
	c-2.1,1-2.8,2.2-1.6,4.7c1.4,2.8,2.1,6,3.3,8.9c1.6,3.8,4.9,5.8,8.7,6.1c2.7,0.2,4.2,1.6,5.4,3.4c2.5,3.8,5.6,6.8,9.5,9.1
	c1.8,1.1,3,2.5,3.1,4.8c0,2.1-0.8,2.9-2.8,2.4c-2.8-0.7-5.1-2.3-6.7-4.7c-2.5-3.8-5.9-6.2-10.2-7.5c-0.7-0.2-1.5-0.4-2.3-0.4
	c-0.7-0.1-1.5-0.3-1.9,0.4c-0.5,0.7-0.3,1.8,0.3,2.1c2.8,1.5,2.9,5.6,6.7,6.2c1.1,0.2,2,1.5,1.5,2.9c-0.5,1.6-2.9,2.6-4.5,2
	c-3.3-1.2-5.8-3.4-7.3-6.6c-1.7-3.8-4.8-6.3-8-8.7c-2.1-1.6-4.6-1.4-7-1.2c-3.4,0.3-6.1-0.7-8.2-3.4c-1.2-1.5-2.5-1.6-4.3-0.7
	c-6.7,3.3-13.6,3.6-20.9,2.3c-7.2-1.3-14.2-3.4-21.3-5c-2.5-0.5-4.4-0.2-6.1,2.2c-2.1,3-5.2,5.1-7.1,8.2c-0.9,1.4-2.5,2.1-4,2.2
	c-3.1,0.1-6.2,0.8-9.3,1c-1.9,0.1-3.8,0.4-5.4,1.5c-0.6,0.4-1.3,0.6-1.7,0.2c-1.2-1.4-2.7-1-4.1-0.6c-3,0.9-5-1-7-2.4
	c-0.9-0.6-1.3-2.1-0.5-3.3c0.8-1.2,1.8-1.7,3.3-1.1c2.5,1.1,5,0.9,7.6,0.1c4.1-1.3,8.3-2.4,12.1-4.6c2.8-1.6,2.8-2,0.2-3.7
	c-4.4-2.9-9.5-4.4-14.5-5.7c-3.1-0.8-4.6-3.1-5.5-5.7c-0.5-1.4,0.9-2.4,2.2-1.8c4,1.6,8.2,1.9,12.3,2.6c2.6,0.5,4.6,2.2,7,3.3
	c3.5,1.5,4.3,1,4.3-2.8c0-2.9,0.3-5.8-2.5-8c-2.2-1.7-4.6-1.6-7.1-1.5C31.5,108.6,28.1,104.6,29.3,99.5z"/>
<path class="st2" d="M175.8,140.3c-0.9,0.8-1.8,1.6-2.7,2.4c-6.1,5.2-13.1,7.1-20.9,5.5c-3-0.6-6-1.2-9-1.9c-3.3-0.7-5.4-2.8-6.6-6
	c-1.6-4.1-3-8.2-4.8-12.2c-3.8-8.8-9.4-16.2-16.5-22.7c-5.2-4.7-9.8-10.2-14.6-15.3c-2.1-2.2-4.1-4.6-6.4-6.5
	c-1.4-1.2-3.4-1.7-5.1-2.5c-0.6-0.3-1.2-0.7-1.7-1.1c0.4-0.4,0.8-0.9,1.3-1.2c1.1-0.6,0.9-1.6,0.4-2.3c-1.9-3-3.7-6-5.8-8.7
	C81.8,66,80,64.5,78.3,63c-5.1-4.6-13.1-3-16.9,0.3c-1,0.8-1.8,2.3-1.9,3.5c-0.3,2-1.3,3.1-3,3.7c-1.8,0.7-3.7,1.3-5.4,2.1
	c-1.8,0.8-2.2,1.9-1.5,3.8c1.7,4.6,3.4,5.8,8.3,5.8c0.7,0,1.3,0,2,0c1.7,0.1,3,0.6,3.8,2.2c0.5,0.9,1.2,1.7,2,2.4
	c2.8,2.2,4.3,5,3.9,8.4c-0.8,6.4,1.5,11.7,4.5,17c2.4,4.2,4.9,8.3,6.9,12.7c2.2,4.8,2.3,10,2,15.2c-0.1,1.6-1.1,2.4-2.5,3
	c-1.3,0.5-2.7,1.1-3.9,1.8c-1.3,0.7-2.1,1.8-1.6,3.5c0.5,1.6,1.6,2.2,3.1,2.2c2.7-0.1,5.4-0.3,8.1-0.4c0.5,0,1,0.5,1.5,0.7
	c1.4,0.6,2.7,1.7,4.2,1.7c6.8,0.3,13.7,0.4,20.5,0.4c3.1,0,6.2-0.2,9.3-0.4c0.7,0,1.4-0.1,1.9-0.5c1.7-1.2,3.5-0.6,5.3-0.3
	c2,0.4,3.9,0.6,5.9,0.8c5.1,0.5,10.2,0.8,15.3,1.3c4.7,0.5,9.3,0,13.8-1.5c1.7-0.6,3.4-1.4,5.1-2.1c3.7-1.6,5.8-4.5,7-8.2
	c0.2-0.5,0.1-1.1,0.2-1.6C176,140.5,175.9,140.4,175.8,140.3z"/>
</svg>
